<svg xmlns="http://www.w3.org/2000/svg">
   <symbol id="tw" viewBox="0 0 24 24">  
    <path d="M 20 2 L 4 2 C 2.898438 2 2 2.898438 2 4 L 2 20 C 2 21.101563 2.898438 22 4 22 L 20 22 C 21.101563 22 22 21.101563 22 20 L 22 4 C 22 2.898438 21.101563 2 20 2 Z M 17.601563 8.800781 C 17.601563 8.898438 17.601563 9 17.601563 9.199219 C 17.601563 13 14.699219 17.398438 9.398438 17.398438 C 7.800781 17.398438 6.300781 16.898438 5 16.101563 C 5.199219 16.101563 5.5 16.101563 5.699219 16.101563 C 7 16.101563 8.300781 15.601563 9.300781 14.898438 C 8 14.898438 7 14 6.601563 12.898438 C 6.800781 12.898438 7 13 7.101563 13 C 7.398438 13 7.601563 13 7.898438 12.898438 C 6.601563 12.601563 5.601563 11.5 5.601563 10.101563 C 6 10.300781 6.398438 10.398438 6.898438 10.5 C 6.101563 9.800781 5.601563 9 5.601563 8 C 5.601563 7.5 5.699219 7 6 6.601563 C 7.398438 8.300781 9.5 9.5 11.898438 9.601563 C 11.898438 9.398438 11.800781 9.199219 11.800781 8.898438 C 11.800781 7.300781 13.101563 6 14.699219 6 C 15.5 6 16.300781 6.300781 16.800781 6.898438 C 17.5 6.800781 18.101563 6.5 18.601563 6.199219 C 18.398438 6.898438 17.898438 7.398438 17.300781 7.800781 C 17.898438 7.699219 18.398438 7.601563 19 7.300781 C 18.601563 7.898438 18.101563 8.398438 17.601563 8.800781 Z "/>
  </symbol>

  <symbol id="fb" viewBox="0 0 24 24">
    <path d="M 20 2 L 4 2 C 2.898438 2 2 2.898438 2 4 L 2 20 C 2 21.101563 2.898438 22 4 22 L 20 22 C 21.101563 22 22 21.101563 22 20 L 22 4 C 22 2.898438 21.101563 2 20 2 Z M 18.398438 7.398438 L 17 7.398438 C 16.101563 7.398438 16 7.699219 16 8.398438 L 16 9.699219 L 18.101563 9.699219 L 18 12 L 16.101563 12 L 16.101563 19 L 12.898438 19 L 12.898438 12 L 11.699219 12 L 11.699219 9.601563 L 12.898438 9.601563 L 12.898438 8.101563 C 12.898438 6.101563 13.699219 5 16 5 L 18.398438 5 Z "/>
  </symbol>

  <symbol id="yt" viewBox="0 0 50 50">
    <path style=" " d="M 44.898438 14.5 C 44.5 12.300781 42.601563 10.699219 40.398438 10.199219 C 37.101563 9.5 31 9 24.398438 9 C 17.800781 9 11.601563 9.5 8.300781 10.199219 C 6.101563 10.699219 4.199219 12.199219 3.800781 14.5 C 3.398438 17 3 20.5 3 25 C 3 29.5 3.398438 33 3.898438 35.5 C 4.300781 37.699219 6.199219 39.300781 8.398438 39.800781 C 11.898438 40.5 17.898438 41 24.5 41 C 31.101563 41 37.101563 40.5 40.601563 39.800781 C 42.800781 39.300781 44.699219 37.800781 45.101563 35.5 C 45.5 33 46 29.398438 46.101563 25 C 45.898438 20.5 45.398438 17 44.898438 14.5 Z M 19 32 L 19 18 L 31.199219 25 Z "/>
  </symbol>

  <symbol id="inst" viewBox="0 0 22 22">
    <path d="M 8 3 C 5.238281 3 3 5.238281 3 8 L 3 16 C 3 18.761719 5.238281 21 8 21 L 16 21 C 18.761719 21 21 18.761719 21 16 L 21 8 C 21 5.238281 18.761719 3 16 3 Z M 18 5 C 18.550781 5 19 5.449219 19 6 C 19 6.550781 18.550781 7 18 7 C 17.449219 7 17 6.550781 17 6 C 17 5.449219 17.449219 5 18 5 Z M 12 7 C 14.761719 7 17 9.238281 17 12 C 17 14.761719 14.761719 17 12 17 C 9.238281 17 7 14.761719 7 12 C 7 9.238281 9.238281 7 12 7 Z M 12 9 C 10.34375 9 9 10.34375 9 12 C 9 13.65625 10.34375 15 12 15 C 13.65625 15 15 13.65625 15 12 C 15 10.34375 13.65625 9 12 9 Z "/>
  </symbol>
</svg>
