<svg xmlns="http://www.w3.org/2000/svg" viewBox="0 0 24 24"><path d="M20 2H4c-1.102 0-2 .898-2 2v16c0 1.102.898 2 2 2h16c1.102 0 2-.898 2-2V4c0-1.102-.898-2-2-2zm-2.398 6.8v.4c0 3.8-2.903 8.198-8.204 8.198-1.597 0-3.097-.5-4.398-1.296h.7c1.3 0 2.6-.5 3.6-1.204-1.3 0-2.3-.898-2.698-2 .199 0 .398.102.5.102.296 0 .5 0 .796-.102-1.296-.296-2.296-1.398-2.296-2.796.398.199.796.296 1.296.398C6.102 9.8 5.602 9 5.602 8c0-.5.097-1 .398-1.398 1.398 1.699 3.5 2.898 5.898 3 0-.204-.097-.403-.097-.704C11.8 7.301 13.1 6 14.699 6c.801 0 1.602.3 2.102.898.699-.097 1.3-.398 1.8-.699-.203.7-.703 1.2-1.3 1.602.597-.102 1.097-.2 1.699-.5a6.791 6.791 0 0 1-1.398 1.5z"/></svg>